# xmcd
#
# Track frame offsets:
#	150
#	19048
#	35594
#	50663
#	63602
#	82292
#	95897
#	111918
#	126636
#	142482
#	159492
#	177250
#	193393
#	210769
#	227934
#	241523
#	258076
#	275760
#	291628
#	308331
#
# Disc length: 4322
#
# Revision: 4
# Processed by: cddbd v1.5.1PL0 Copyright (c) Steve Scherf et al.
# Submitted via: FreeRIP 2.60 
# Normalized: r3:DSETVAR1,TDELIM( - )
#
DISCID=3b10e014
DTITLE=Various Artist - Promo Only Country Radio July 2000
DYEAR=2000
DGENRE=Country
TTITLE0=Faith Hill and Tim McGraw - Let's Make Love
TTITLE1=Clint Black - Love She Can't Live Without
TTITLE2=Chad Brock - The Visit
TTITLE3=Aaron Tippin - Kiss This
TTITLE4=Billy Gilman - One Voice
TTITLE5=Jessica Andrews - I Do Now
TTITLE6=Ty Herndon - A Love Like That
TTITLE7=Sawyer Brown - Perfect World
TTITLE8=Patty Loveless - That's The Kind Of Mood I'm In
TTITLE9=Allison Moorer - Send Down An Angel
TTITLE10=Yankee Grey - This Time Around
TTITLE11=Sara Evans - Born To Fly (Single Edit)
TTITLE12=Billy Ray Cyrus - You Won't Be Lonely Now
TTITLE13=Wilkinsons, The - Shame On Me (Single Remix)
TTITLE14=Kenny Rogers - He Will, She Knows
TTITLE15=Colin Raye and Bobbie - Tired Of Loving This Way
TTITLE16=Samantha Russell - You Should Go
TTITLE17=Danni Leigh - I Don't Feel That Way Anymore
TTITLE18=Marc Corey Lee - Memphis Rain
TTITLE19=Sean Dennison - Damned If I Do, Damned If I Don't
EXTD=
EXTT0=
EXTT1=
EXTT2=
EXTT3=
EXTT4=
EXTT5=
EXTT6=
EXTT7=
EXTT8=
EXTT9=
EXTT10=
EXTT11=
EXTT12=
EXTT13=
EXTT14=
EXTT15=
EXTT16=
EXTT17=
EXTT18=
EXTT19=
PLAYORDER=
